<svg width="35" height="35" viewBox="0 0 35 35" fill="none" xmlns="http://www.w3.org/2000/svg">
<mask id="mask0_177449_850" style="mask-type:alpha" maskUnits="userSpaceOnUse" x="0" y="0" width="35" height="35">
<rect width="35" height="35" fill="#D9D9D9"/>
</mask>
<g mask="url(#mask0_177449_850)">
<path d="M17.5 32.0834C14.9236 32.0834 12.8212 31.6763 11.1927 30.8621C9.56424 30.0478 8.75 28.9966 8.75 27.7084C8.75 26.8577 9.10243 26.1164 9.80729 25.4845C10.5122 24.8525 11.4844 24.3542 12.724 23.9897L13.5625 26.7605C13.1493 26.882 12.7726 27.0339 12.4323 27.2162C12.092 27.3985 11.8611 27.5626 11.7396 27.7084C12.0556 28.0973 12.7847 28.4376 13.9271 28.7292C15.0694 29.0209 16.2604 29.1667 17.5 29.1667C18.7396 29.1667 19.9366 29.0209 21.0911 28.7292C22.2457 28.4376 22.9809 28.0973 23.2969 27.7084C23.1753 27.5626 22.9444 27.3985 22.6042 27.2162C22.2639 27.0339 21.8872 26.882 21.474 26.7605L22.3125 23.9897C23.5521 24.3542 24.5182 24.8525 25.2109 25.4845C25.9036 26.1164 26.25 26.8577 26.25 27.7084C26.25 28.9966 25.4358 30.0478 23.8073 30.8621C22.1788 31.6763 20.0764 32.0834 17.5 32.0834ZM17.5 22.349C17.9375 21.547 18.3993 20.8117 18.8854 20.1433C19.3715 19.4749 19.8455 18.8369 20.3073 18.2292C21.2066 17.0626 21.9236 16.0114 22.4583 15.0756C22.9931 14.1398 23.2604 12.9792 23.2604 11.5938C23.2604 9.98966 22.7014 8.62855 21.5833 7.5105C20.4653 6.39244 19.1042 5.83341 17.5 5.83341C15.8958 5.83341 14.5347 6.39244 13.4167 7.5105C12.2986 8.62855 11.7396 9.98966 11.7396 11.5938C11.7396 12.9792 12.0069 14.1398 12.5417 15.0756C13.0764 16.0114 13.7934 17.0626 14.6927 18.2292C15.1545 18.8369 15.6285 19.4749 16.1146 20.1433C16.6007 20.8117 17.0625 21.547 17.5 22.349ZM17.5 27.7084C17.2326 27.7084 16.9896 27.6294 16.7708 27.4714C16.5521 27.3134 16.3941 27.1008 16.2969 26.8334C15.7378 25.1077 15.033 23.6615 14.1823 22.4949C13.3316 21.3282 12.5052 20.2101 11.7031 19.1407C10.9253 18.0713 10.2509 16.9654 9.67969 15.823C9.10851 14.6806 8.82292 13.2709 8.82292 11.5938C8.82292 9.16328 9.66146 7.10946 11.3385 5.43237C13.0156 3.75529 15.0694 2.91675 17.5 2.91675C19.9306 2.91675 21.9844 3.75529 23.6615 5.43237C25.3385 7.10946 26.1771 9.16328 26.1771 11.5938C26.1771 13.2709 25.8976 14.6806 25.3385 15.823C24.7795 16.9654 24.099 18.0713 23.2969 19.1407C22.5191 20.2101 21.6988 21.3282 20.8359 22.4949C19.9731 23.6615 19.2622 25.1077 18.7031 26.8334C18.6059 27.1008 18.4479 27.3134 18.2292 27.4714C18.0104 27.6294 17.7674 27.7084 17.5 27.7084ZM17.5 14.6928C18.3507 14.6928 19.0799 14.389 19.6875 13.7813C20.2951 13.1737 20.599 12.4445 20.599 11.5938C20.599 10.7431 20.2951 10.014 19.6875 9.40633C19.0799 8.79869 18.3507 8.49487 17.5 8.49487C16.6493 8.49487 15.9201 8.79869 15.3125 9.40633C14.7049 10.014 14.401 10.7431 14.401 11.5938C14.401 12.4445 14.7049 13.1737 15.3125 13.7813C15.9201 14.389 16.6493 14.6928 17.5 14.6928Z" fill="#076ED5"/>
</g>
</svg>
