<svg width="21" height="20" viewBox="0 0 21 20" fill="none" xmlns="http://www.w3.org/2000/svg">
<mask id="mask0_177449_524" style="mask-type:alpha" maskUnits="userSpaceOnUse" x="0" y="0" width="21" height="20">
<rect x="0.5" width="20" height="20" fill="#D9D9D9"/>
</mask>
<g mask="url(#mask0_177449_524)">
<path d="M10.4998 17.5L9.2915 16.4167C7.88873 15.1528 6.729 14.0625 5.81234 13.1459C4.89567 12.2292 4.1665 11.4063 3.62484 10.6771C3.08317 9.94796 2.7047 9.27782 2.48942 8.66671C2.27414 8.0556 2.1665 7.4306 2.1665 6.79171C2.1665 5.48615 2.604 4.39587 3.479 3.52087C4.354 2.64587 5.44428 2.20837 6.74984 2.20837C7.47206 2.20837 8.15956 2.36115 8.81234 2.66671C9.46511 2.97226 10.0276 3.40282 10.4998 3.95837C10.9721 3.40282 11.5346 2.97226 12.1873 2.66671C12.8401 2.36115 13.5276 2.20837 14.2498 2.20837C15.5554 2.20837 16.6457 2.64587 17.5207 3.52087C18.3957 4.39587 18.8332 5.48615 18.8332 6.79171C18.8332 7.4306 18.7255 8.0556 18.5103 8.66671C18.295 9.27782 17.9165 9.94796 17.3748 10.6771C16.8332 11.4063 16.104 12.2292 15.1873 13.1459C14.2707 14.0625 13.1109 15.1528 11.7082 16.4167L10.4998 17.5ZM10.4998 15.25C11.8332 14.0556 12.9304 13.0313 13.7915 12.1771C14.6526 11.323 15.3332 10.5799 15.8332 9.94796C16.3332 9.31601 16.6804 8.75351 16.8748 8.26046C17.0693 7.7674 17.1665 7.27782 17.1665 6.79171C17.1665 5.95837 16.8887 5.26393 16.3332 4.70837C15.7776 4.15282 15.0832 3.87504 14.2498 3.87504C13.5971 3.87504 12.9929 4.05907 12.4373 4.42712C11.8818 4.79518 11.4998 5.26393 11.2915 5.83337H9.70817C9.49984 5.26393 9.11789 4.79518 8.56234 4.42712C8.00678 4.05907 7.40262 3.87504 6.74984 3.87504C5.9165 3.87504 5.22206 4.15282 4.6665 4.70837C4.11095 5.26393 3.83317 5.95837 3.83317 6.79171C3.83317 7.27782 3.93039 7.7674 4.12484 8.26046C4.31928 8.75351 4.6665 9.31601 5.1665 9.94796C5.6665 10.5799 6.34706 11.323 7.20817 12.1771C8.06928 13.0313 9.1665 14.0556 10.4998 15.25Z" fill="#076ED5"/>
</g>
</svg>
