<svg width="20" height="21" viewBox="0 0 20 21" fill="none" xmlns="http://www.w3.org/2000/svg">
<path d="M14.1665 2.1665H5.83317C3.53198 2.1665 1.6665 4.03198 1.6665 6.33317V14.6665C1.6665 16.9677 3.53198 18.8332 5.83317 18.8332H14.1665C16.4677 18.8332 18.3332 16.9677 18.3332 14.6665V6.33317C18.3332 4.03198 16.4677 2.1665 14.1665 2.1665Z" stroke="white" stroke-width="1.66667" stroke-linecap="round" stroke-linejoin="round"/>
<path d="M13.3333 9.97476C13.4361 10.6683 13.3176 11.3766 12.9947 11.9989C12.6718 12.6213 12.1609 13.1259 11.5346 13.4412C10.9083 13.7564 10.1986 13.8661 9.50641 13.7547C8.81419 13.6433 8.17472 13.3165 7.67895 12.8207C7.18318 12.325 6.85636 11.6855 6.74497 10.9933C6.63359 10.3011 6.74331 9.59134 7.05852 8.96507C7.37374 8.33881 7.87841 7.82788 8.50074 7.50496C9.12307 7.18205 9.83138 7.06359 10.5249 7.16643C11.2324 7.27133 11.8873 7.60098 12.393 8.10669C12.8987 8.61239 13.2283 9.26733 13.3333 9.97476Z" stroke="white" stroke-width="1.66667" stroke-linecap="round" stroke-linejoin="round"/>
<path d="M14.5835 5.9165H14.5922" stroke="white" stroke-width="1.66667" stroke-linecap="round" stroke-linejoin="round"/>
</svg>
