<svg width="20" height="21" viewBox="0 0 20 21" fill="none" xmlns="http://www.w3.org/2000/svg">
<path d="M18.7835 5.85016C18.6845 5.45467 18.4829 5.09231 18.199 4.79967C17.9152 4.50703 17.5591 4.29448 17.1668 4.1835C15.7335 3.8335 10.0002 3.8335 10.0002 3.8335C10.0002 3.8335 4.26682 3.8335 2.83348 4.21683C2.44119 4.32782 2.08513 4.54036 1.80127 4.833C1.51741 5.12564 1.31581 5.488 1.21682 5.8835C0.954496 7.33813 0.826181 8.81375 0.833484 10.2918C0.824134 11.781 0.952457 13.2679 1.21682 14.7335C1.32595 15.1167 1.53207 15.4653 1.81527 15.7456C2.09847 16.0258 2.44917 16.2283 2.83348 16.3335C4.26682 16.7168 10.0002 16.7168 10.0002 16.7168C10.0002 16.7168 15.7335 16.7168 17.1668 16.3335C17.5591 16.2225 17.9152 16.01 18.199 15.7173C18.4829 15.4247 18.6845 15.0623 18.7835 14.6668C19.0438 13.2232 19.1721 11.7588 19.1668 10.2918C19.1762 8.80263 19.0478 7.31574 18.7835 5.85016V5.85016Z" stroke="white" stroke-width="1.66667" stroke-linecap="round" stroke-linejoin="round"/>
<path d="M8.125 13.0169L12.9167 10.2919L8.125 7.56689V13.0169Z" stroke="white" stroke-width="1.66667" stroke-linecap="round" stroke-linejoin="round"/>
</svg>
