<svg width="66" height="65" viewBox="0 0 66 65" fill="none" xmlns="http://www.w3.org/2000/svg">
<path d="M62.7112 52.6338C62.4511 51.5301 62.0598 50.4427 61.4667 49.4569C60.2872 47.4717 58.4889 45.9564 56.5998 44.7322C54.6918 43.5121 52.651 42.533 50.5629 41.7273C46.5641 40.1822 46.7577 40.2337 44.0589 39.2708C38.0789 37.1394 34.7584 33.9706 34.5499 30.5338C34.4497 28.8695 36.0747 23.446 42.7751 24.7352C44.3663 25.0413 45.8721 25.4705 47.3549 26.1395C48.7213 26.757 52.7093 28.6907 54.1068 31.4438C54.2124 32.6584 54.6403 33.1283 56.3493 33.9354C57.6344 34.5421 58.9317 35.2016 59.0481 36.6966C59.0549 36.7778 59.1172 36.8442 59.2255 36.8604C59.2959 36.8604 59.3609 36.8184 59.3894 36.7507C59.6358 36.1563 60.6284 35.4115 61.3678 35.6146C61.4531 35.6363 61.529 35.6024 61.5682 35.532C61.6089 35.4616 61.5953 35.3749 61.5398 35.318L60.3712 34.1616C59.95 33.7418 59.4896 33.1852 59.0996 32.4702C58.994 32.2779 58.9032 32.0883 58.8233 31.9055C58.7719 31.7782 58.7204 31.6523 58.669 31.525C57.6885 28.9589 55.8618 26.2099 53.9768 24.4292C52.953 23.4447 51.8264 22.578 50.6252 21.8387C49.4187 21.1101 48.162 20.4628 46.7889 20.0755L46.6887 20.4222C47.971 20.865 49.1708 21.5719 50.2934 22.3438C51.4147 23.1278 52.4506 24.027 53.3715 25.0237C54.6864 26.4212 55.7223 28.0434 56.4617 29.7795L53.7628 26.4252L53.8373 27.5871L51.6259 25.0941L51.7627 26.2614L49.615 24.5294L49.7992 25.3202C49.3157 25.0006 45.0257 23.2944 42.8848 22.49C40.7439 21.6856 36.5134 17.7179 37.7335 12.6967C37.7335 12.6967 35.7334 11.9194 34.3007 11.3899C32.8883 10.8807 31.4705 10.419 30.0487 9.97344C27.2049 9.0824 24.3449 8.2699 21.47 7.51157C18.5951 6.7573 15.7013 6.07344 12.7912 5.46949C9.87969 4.8723 6.95199 4.34011 3.98907 4.04355L3.93626 4.49449C6.85178 4.94272 9.72938 5.62251 12.5853 6.36594C15.4399 7.11751 18.2755 7.9449 21.0881 8.84272C23.8994 9.74324 26.693 10.6979 29.4528 11.7244C30.8314 12.2376 32.2058 12.7657 33.5519 13.3331C33.8376 13.4523 34.1288 13.5769 34.4199 13.7015C32.7624 13.3751 31.1049 13.1165 29.446 12.9012C26.452 12.5206 23.4552 12.2809 20.4557 12.1455C17.4576 12.0101 14.4568 11.9884 11.4614 12.0995C8.4673 12.2159 5.47188 12.4502 2.51709 12.9567L2.57532 13.3683C5.5274 13.065 8.4998 13.0352 11.4627 13.1205C14.427 13.2113 17.3858 13.4333 20.3284 13.7665C23.2697 14.0996 26.1988 14.5343 29.0885 15.1017C30.8706 15.4551 32.6419 15.8654 34.3739 16.3489C33.0048 16.2121 31.6425 16.1769 30.2924 16.1931C27.6152 16.2338 24.9759 16.5276 22.3732 16.9704C19.7705 17.4173 17.203 18.0172 14.6883 18.7931C12.1818 19.5772 9.70365 20.5089 7.42865 21.8387L7.58574 22.1203C9.9149 20.9991 12.4174 20.2814 14.9334 19.7113C17.4549 19.1506 20.0129 18.766 22.5764 18.5358C25.1371 18.3083 27.7114 18.2325 30.245 18.3991C32.4983 18.548 34.7368 18.8906 36.7856 19.5488C36.8736 20.1514 37.2813 21.3715 37.4776 21.9808C31.7156 24.6309 30.9857 29.3976 31.457 31.9543C32.0108 34.9524 34.1802 37.2382 36.7437 38.7183C38.8656 39.9249 41.0336 40.6941 43.1434 41.4903C45.2492 42.2798 47.3346 43.0381 49.1925 44.0876C51.0233 45.0992 52.5454 46.6619 53.7845 48.4345C56.2721 52.0068 57.2674 56.5107 57.5653 60.9538L58.0596 60.9402C58.0704 56.4403 57.4231 51.7292 55.01 47.6531C54.2138 46.3179 53.2306 45.0518 52.0701 43.9522C53.4134 44.4722 54.7256 45.0599 55.9796 45.7573C57.8389 46.8122 59.5912 48.1257 60.7842 49.8889C61.3854 50.765 61.8066 51.7508 62.1153 52.7773C62.3889 53.8159 62.5148 54.8966 62.5608 55.988H62.9833C62.9982 54.8736 62.9359 53.7469 62.7112 52.6338Z" fill="white"/>
</svg>
