<svg width="72" height="73" viewBox="0 0 72 73" fill="none" xmlns="http://www.w3.org/2000/svg">
<path d="M69.1877 58.802C68.8997 57.5795 68.4662 56.375 67.8092 55.283C66.5027 53.084 64.5107 51.4055 62.4182 50.0495C60.3047 48.698 58.0442 47.6135 55.7312 46.721C51.3017 45.0095 51.5162 45.0665 48.5267 44C41.9027 41.639 38.2247 38.129 37.9937 34.322C37.8827 32.4785 39.6827 26.471 47.1047 27.899C48.8672 28.238 50.5352 28.7135 52.1777 29.4545C53.6912 30.1385 58.1087 32.2805 59.6567 35.33C59.7737 36.6755 60.2477 37.196 62.1407 38.09C63.5642 38.762 65.0012 39.4925 65.1302 41.1485C65.1377 41.2385 65.2067 41.312 65.3267 41.33C65.4047 41.33 65.4767 41.2835 65.5082 41.2085C65.7812 40.55 66.8807 39.725 67.6997 39.95C67.7942 39.974 67.8782 39.9365 67.9217 39.8585C67.9667 39.7805 67.9517 39.6845 67.8902 39.6215L66.5957 38.3405C66.1292 37.8755 65.6192 37.259 65.1872 36.467C65.0702 36.254 64.9697 36.044 64.8812 35.8415C64.8242 35.7005 64.7672 35.561 64.7102 35.42C63.6242 32.5775 61.6007 29.5325 59.5127 27.56C58.3787 26.4695 57.1307 25.5095 55.8002 24.6905C54.4637 23.8835 53.0717 23.1665 51.5507 22.7375L51.4397 23.1215C52.8602 23.612 54.1892 24.395 55.4327 25.25C56.6747 26.1185 57.8222 27.1145 58.8422 28.2185C60.2987 29.7665 61.4462 31.5635 62.2652 33.4865L59.2757 29.771L59.3582 31.058L56.9087 28.2965L57.0602 29.5895L54.6812 27.671L54.8852 28.547C54.3497 28.193 49.5977 26.303 47.2262 25.412C44.8547 24.521 40.1687 20.126 41.5202 14.564C41.5202 14.564 39.3047 13.703 37.7177 13.1165C36.1532 12.5525 34.5827 12.041 33.0077 11.5475C29.8577 10.5605 26.6897 9.6605 23.5052 8.8205C20.3207 7.985 17.1152 7.2275 13.8917 6.5585C10.6667 5.897 7.42373 5.3075 4.14173 4.979L4.08323 5.4785C7.31273 5.975 10.5002 6.728 13.6637 7.5515C16.8257 8.384 19.9667 9.3005 23.0822 10.295C26.1962 11.2925 29.2907 12.35 32.3477 13.487C33.8747 14.0555 35.3972 14.6405 36.8882 15.269C37.2047 15.401 37.5272 15.539 37.8497 15.677C36.0137 15.3155 34.1777 15.029 32.3402 14.7905C29.0237 14.369 25.7042 14.1035 22.3817 13.9535C19.0607 13.8035 15.7367 13.7795 12.4187 13.9025C9.10223 14.0315 5.78423 14.291 2.51123 14.852L2.57573 15.308C5.84573 14.972 9.13823 14.939 12.4202 15.0335C15.7037 15.134 18.9812 15.38 22.2407 15.749C25.4987 16.118 28.7432 16.5995 31.9442 17.228C33.9182 17.6195 35.8802 18.074 37.7987 18.6095C36.2822 18.458 34.7732 18.419 33.2777 18.437C30.3122 18.482 27.3887 18.8075 24.5057 19.298C21.6227 19.793 18.7787 20.4575 15.9932 21.317C13.2167 22.1855 10.4717 23.2175 7.95173 24.6905L8.12573 25.0025C10.7057 23.7605 13.4777 22.9655 16.2647 22.334C19.0577 21.713 21.8912 21.287 24.7307 21.032C27.5672 20.78 30.4187 20.696 33.2252 20.8805C35.7212 21.0455 38.2007 21.425 40.4702 22.154C40.5677 22.8215 41.0192 24.173 41.2367 24.848C34.8542 27.7835 34.0457 33.0635 34.5677 35.8955C35.1812 39.2165 37.5842 41.7485 40.4237 43.388C42.7742 44.7245 45.1757 45.5765 47.5127 46.4585C49.8452 47.333 52.1552 48.173 54.2132 49.3355C56.2412 50.456 57.9272 52.187 59.2997 54.1505C62.0552 58.1075 63.1577 63.0965 63.4877 68.018L64.0352 68.003C64.0472 63.0185 63.3302 57.8 60.6572 53.285C59.7752 51.806 58.6862 50.4035 57.4007 49.1855C58.8887 49.7615 60.3422 50.4125 61.7312 51.185C63.7907 52.3535 65.7317 53.8085 67.0532 55.7615C67.7192 56.732 68.1857 57.824 68.5277 58.961C68.8307 60.1115 68.9702 61.3085 69.0212 62.5175H69.4892C69.5057 61.283 69.4367 60.035 69.1877 58.802Z" fill="white"/>
</svg>
