<svg width="33" height="21" viewBox="0 0 33 21" fill="none" xmlns="http://www.w3.org/2000/svg">
<g clip-path="url(#clip0_177431_2770)">
<path d="M10.3124 20.5C16.0078 20.5 20.6249 16.0228 20.6249 10.5C20.6249 4.97715 16.0078 0.5 10.3124 0.5C4.61704 0.5 0 4.97715 0 10.5C0 16.0228 4.61704 20.5 10.3124 20.5Z" fill="#EB001B"/>
<path d="M22.6874 20.5C28.3828 20.5 32.9999 16.0228 32.9999 10.5C32.9999 4.97715 28.3828 0.5 22.6874 0.5C16.992 0.5 12.375 4.97715 12.375 10.5C12.375 16.0228 16.992 20.5 22.6874 20.5Z" fill="#F79E1B"/>
<path fill-rule="evenodd" clip-rule="evenodd" d="M16.5 2.49902C19.0048 4.32344 20.625 7.22812 20.625 10.4998C20.625 13.7714 19.0048 16.6761 16.5 18.5005C13.9952 16.6761 12.375 13.7714 12.375 10.4998C12.375 7.22812 13.9952 4.32344 16.5 2.49902Z" fill="#FF5F00"/>
</g>
<defs>
<clipPath id="clip0_177431_2770">
<rect width="33" height="20" fill="white" transform="translate(0 0.5)"/>
</clipPath>
</defs>
</svg>
