<svg width="21" height="20" viewBox="0 0 21 20" fill="none" xmlns="http://www.w3.org/2000/svg">
<mask id="mask0_177449_493" style="mask-type:alpha" maskUnits="userSpaceOnUse" x="0" y="0" width="21" height="20">
<rect x="0.5" width="20" height="20" fill="#D9D9D9"/>
</mask>
<g mask="url(#mask0_177449_493)">
<path d="M6.75016 9.16665C5.94461 9.16665 5.25711 8.88192 4.68766 8.31248C4.11822 7.74303 3.8335 7.05554 3.8335 6.24998C3.8335 5.44442 4.11822 4.75692 4.68766 4.18748C5.25711 3.61804 5.94461 3.33331 6.75016 3.33331C7.55572 3.33331 8.24322 3.61804 8.81266 4.18748C9.38211 4.75692 9.66683 5.44442 9.66683 6.24998C9.66683 7.05554 9.38211 7.74303 8.81266 8.31248C8.24322 8.88192 7.55572 9.16665 6.75016 9.16665ZM6.75016 7.49998C7.09738 7.49998 7.39252 7.37845 7.63558 7.1354C7.87863 6.89234 8.00016 6.5972 8.00016 6.24998C8.00016 5.90276 7.87863 5.60762 7.63558 5.36456C7.39252 5.12151 7.09738 4.99998 6.75016 4.99998C6.40294 4.99998 6.1078 5.12151 5.86475 5.36456C5.62169 5.60762 5.50016 5.90276 5.50016 6.24998C5.50016 6.5972 5.62169 6.89234 5.86475 7.1354C6.1078 7.37845 6.40294 7.49998 6.75016 7.49998ZM14.2502 16.6666C13.4446 16.6666 12.7571 16.3819 12.1877 15.8125C11.6182 15.243 11.3335 14.5555 11.3335 13.75C11.3335 12.9444 11.6182 12.2569 12.1877 11.6875C12.7571 11.118 13.4446 10.8333 14.2502 10.8333C15.0557 10.8333 15.7432 11.118 16.3127 11.6875C16.8821 12.2569 17.1668 12.9444 17.1668 13.75C17.1668 14.5555 16.8821 15.243 16.3127 15.8125C15.7432 16.3819 15.0557 16.6666 14.2502 16.6666ZM14.2502 15C14.5974 15 14.8925 14.8785 15.1356 14.6354C15.3786 14.3923 15.5002 14.0972 15.5002 13.75C15.5002 13.4028 15.3786 13.1076 15.1356 12.8646C14.8925 12.6215 14.5974 12.5 14.2502 12.5C13.9029 12.5 13.6078 12.6215 13.3647 12.8646C13.1217 13.1076 13.0002 13.4028 13.0002 13.75C13.0002 14.0972 13.1217 14.3923 13.3647 14.6354C13.6078 14.8785 13.9029 15 14.2502 15ZM5.00016 16.6666L3.8335 15.5L16.0002 3.33331L17.1668 4.49998L5.00016 16.6666Z" fill="#076ED5"/>
</g>
</svg>
