<svg width="21" height="21" viewBox="0 0 21 21" fill="none" xmlns="http://www.w3.org/2000/svg">
<path d="M10.2498 10.5C8.87476 10.5 7.69767 10.0104 6.71851 9.03125C5.73934 8.05208 5.24976 6.875 5.24976 5.5C5.24976 4.125 5.73934 2.94792 6.71851 1.96875C7.69767 0.989583 8.87476 0.5 10.2498 0.5C11.6248 0.5 12.8018 0.989583 13.781 1.96875C14.7602 2.94792 15.2498 4.125 15.2498 5.5C15.2498 6.875 14.7602 8.05208 13.781 9.03125C12.8018 10.0104 11.6248 10.5 10.2498 10.5ZM0.249756 20.5V17C0.249756 16.2917 0.432048 15.6406 0.796631 15.0469C1.16121 14.4531 1.64559 14 2.24976 13.6875C3.54142 13.0417 4.85392 12.5573 6.18726 12.2344C7.52059 11.9115 8.87476 11.75 10.2498 11.75C11.6248 11.75 12.9789 11.9115 14.3123 12.2344C15.6456 12.5573 16.9581 13.0417 18.2498 13.6875C18.8539 14 19.3383 14.4531 19.7029 15.0469C20.0675 15.6406 20.2498 16.2917 20.2498 17V20.5H0.249756ZM2.74976 18H17.7498V17C17.7498 16.7708 17.6925 16.5625 17.5779 16.375C17.4633 16.1875 17.3123 16.0417 17.1248 15.9375C15.9998 15.375 14.8643 14.9531 13.7185 14.6719C12.5727 14.3906 11.4164 14.25 10.2498 14.25C9.08309 14.25 7.92684 14.3906 6.78101 14.6719C5.63517 14.9531 4.49976 15.375 3.37476 15.9375C3.18726 16.0417 3.03621 16.1875 2.92163 16.375C2.80705 16.5625 2.74976 16.7708 2.74976 17V18ZM10.2498 8C10.9373 8 11.5258 7.75521 12.0154 7.26562C12.505 6.77604 12.7498 6.1875 12.7498 5.5C12.7498 4.8125 12.505 4.22396 12.0154 3.73438C11.5258 3.24479 10.9373 3 10.2498 3C9.56226 3 8.97371 3.24479 8.48413 3.73438C7.99455 4.22396 7.74976 4.8125 7.74976 5.5C7.74976 6.1875 7.99455 6.77604 8.48413 7.26562C8.97371 7.75521 9.56226 8 10.2498 8Z" fill="white"/>
</svg>
