<svg width="23" height="23" viewBox="0 0 23 23" fill="none" xmlns="http://www.w3.org/2000/svg">
<path d="M20.75 22.75L12.875 14.875C12.25 15.375 11.5312 15.7708 10.7188 16.0625C9.90625 16.3542 9.04167 16.5 8.125 16.5C5.85417 16.5 3.93229 15.7135 2.35938 14.1406C0.786458 12.5677 0 10.6458 0 8.375C0 6.10417 0.786458 4.18229 2.35938 2.60938C3.93229 1.03646 5.85417 0.25 8.125 0.25C10.3958 0.25 12.3177 1.03646 13.8906 2.60938C15.4635 4.18229 16.25 6.10417 16.25 8.375C16.25 9.29167 16.1042 10.1562 15.8125 10.9688C15.5208 11.7812 15.125 12.5 14.625 13.125L22.5 21L20.75 22.75ZM8.125 14C9.6875 14 11.0156 13.4531 12.1094 12.3594C13.2031 11.2656 13.75 9.9375 13.75 8.375C13.75 6.8125 13.2031 5.48438 12.1094 4.39062C11.0156 3.29688 9.6875 2.75 8.125 2.75C6.5625 2.75 5.23438 3.29688 4.14062 4.39062C3.04688 5.48438 2.5 6.8125 2.5 8.375C2.5 9.9375 3.04688 11.2656 4.14062 12.3594C5.23438 13.4531 6.5625 14 8.125 14Z" fill="white"/>
</svg>
