<svg width="21" height="20" viewBox="0 0 21 20" fill="none" xmlns="http://www.w3.org/2000/svg">
<mask id="mask0_177449_481" style="mask-type:alpha" maskUnits="userSpaceOnUse" x="0" y="0" width="21" height="20">
<rect x="0.5" width="20" height="20" fill="#D9D9D9"/>
</mask>
<g mask="url(#mask0_177449_481)">
<path d="M15.4998 17.5H6.33317V6.66665L12.1665 0.833313L13.2082 1.87498C13.3054 1.9722 13.3853 2.10415 13.4478 2.27081C13.5103 2.43748 13.5415 2.5972 13.5415 2.74998V3.04165L12.6248 6.66665H17.9998C18.4443 6.66665 18.8332 6.83331 19.1665 7.16665C19.4998 7.49998 19.6665 7.88887 19.6665 8.33331V9.99998C19.6665 10.0972 19.6526 10.2014 19.6248 10.3125C19.5971 10.4236 19.5693 10.5278 19.5415 10.625L17.0415 16.5C16.9165 16.7778 16.7082 17.0139 16.4165 17.2083C16.1248 17.4028 15.8193 17.5 15.4998 17.5ZM7.99984 15.8333H15.4998L17.9998 9.99998V8.33331H10.4998L11.6248 3.74998L7.99984 7.37498V15.8333ZM6.33317 6.66665V8.33331H3.83317V15.8333H6.33317V17.5H2.1665V6.66665H6.33317Z" fill="#076ED5"/>
</g>
</svg>
