<svg width="67" height="21" viewBox="0 0 67 21" fill="none" xmlns="http://www.w3.org/2000/svg">
<g clip-path="url(#clip0_177431_2769)">
<path d="M5.70372 3.36835C4.03465 2.46832 2.12977 1.74446 0 1.24213L0.0893348 0.850945H8.8216C10.0052 0.891733 10.9656 1.24186 11.2782 2.47837L13.1759 11.3738L13.7573 14.053L19.0726 0.850945H24.8117L16.2806 20.1909H10.5412L5.70372 3.36835ZM29.0333 20.2115H23.6058L27.0005 0.850945H32.4277L29.0333 20.2115ZM48.7083 1.32425L47.9702 5.50493L47.4793 5.29934C46.4972 4.90788 45.2008 4.5167 43.4364 4.55803C41.2935 4.55803 40.3325 5.402 40.3102 6.22598C40.3102 7.13236 41.4728 7.72967 43.3711 8.61552C46.4981 9.99548 47.9485 11.6842 47.9268 13.8882C47.8829 17.9046 44.1754 20.5 38.4805 20.5C36.0456 20.4792 33.7003 20.0045 32.4274 19.4696L33.1869 15.1236L33.9016 15.4329C35.666 16.1545 36.8271 16.4628 38.9939 16.4628C40.5566 16.4628 42.232 15.8649 42.2533 14.5679C42.2533 13.7234 41.5396 13.105 39.4397 12.1575C37.3853 11.2304 34.6385 9.68587 34.683 6.90515C34.7062 3.13619 38.4805 0.5 43.8403 0.5C45.9398 0.5 47.6378 0.932521 48.7083 1.32425ZM55.9219 13.3527H60.4331C60.2099 12.3848 59.1822 7.75048 59.1822 7.75048L58.8029 6.08226C58.5349 6.80304 58.0662 7.97714 58.0888 7.93581C58.0888 7.93581 56.3688 12.2405 55.9219 13.3527ZM62.6214 0.850945L67 20.2112H61.9747C61.9747 20.2112 61.4829 17.9867 61.3271 17.307H54.3587C54.1571 17.8217 53.2196 20.2112 53.2196 20.2112H47.5247L55.5865 2.4573C56.1451 1.20079 57.1286 0.850945 58.4233 0.850945H62.6214Z" fill="white"/>
</g>
<defs>
<clipPath id="clip0_177431_2769">
<rect width="67" height="20" fill="white" transform="translate(0 0.5)"/>
</clipPath>
</defs>
</svg>
